<svg 
         class="fill-current"
          width="18" height="18" 
          viewBox="0 0 256 256" xml:space="preserve">
          fill="none"
          xmlns="http://www.w3.org/2000/svg" 
         xmlns:xlink="http://www.w3.org/1999/xlink"
          version="1.1"


<g style="stroke: none; stroke-width: 0; stroke-dasharray: none; stroke-linecap: butt; stroke-linejoin: miter; stroke-miterlimit: 10; fill: none; fill-rule: nonzero; opacity: 1;" transform="translate(1.4065934065934016 1.4065934065934016) scale(2.81 2.81)" >
	<path d="M 86.752 39.354 c -1.655 0 -2.942 1.939 -3.199 4.646 H 70.665 c -0.107 -2.766 -0.648 -5.423 -1.566 -7.9 l 6.524 -2.702 c 0.478 0.9 1.062 1.677 1.697 2.242 c 0.735 0.654 1.494 0.991 2.206 0.991 c 0.286 0 0.564 -0.055 0.831 -0.165 c 1.711 -0.709 2.072 -3.486 0.841 -6.459 c -0.532 -1.283 -1.286 -2.401 -2.125 -3.147 c -1.03 -0.917 -2.107 -1.211 -3.037 -0.825 c -0.928 0.385 -1.483 1.354 -1.563 2.731 c -0.049 0.848 0.087 1.811 0.386 2.785 l -6.531 2.705 c -1.14 -2.465 -2.656 -4.72 -4.479 -6.689 l 9.12 -9.119 c 0.785 0.649 1.623 1.143 2.425 1.422 c 0.501 0.174 0.972 0.26 1.403 0.26 c 0.692 0 1.281 -0.222 1.719 -0.66 c 1.31 -1.31 0.581 -4.013 -1.695 -6.289 c -0.981 -0.982 -2.106 -1.726 -3.166 -2.095 c -1.305 -0.453 -2.412 -0.311 -3.122 0.4 c -1.169 1.169 -0.704 3.448 1.027 5.543 l -9.124 9.124 c -1.97 -1.823 -4.225 -3.34 -6.689 -4.48 l 2.706 -6.532 c 0.849 0.261 1.666 0.392 2.402 0.392 c 1.514 0 2.688 -0.541 3.114 -1.57 c 0.708 -1.711 -1 -3.93 -3.973 -5.161 c -1.283 -0.532 -2.609 -0.792 -3.729 -0.723 c -1.376 0.08 -2.346 0.635 -2.73 1.563 c -0.385 0.929 -0.092 2.007 0.825 3.038 c 0.564 0.634 1.342 1.219 2.242 1.697 L 53.9 20.9 c -2.477 -0.918 -5.133 -1.459 -7.9 -1.566 V 6.447 c 2.707 -0.257 4.646 -1.544 4.646 -3.198 C 50.646 1.396 48.219 0 45 0 c -3.218 0 -5.646 1.396 -5.646 3.249 c 0 1.654 1.939 2.941 4.646 3.198 v 12.888 c -2.767 0.107 -5.423 0.648 -7.9 1.566 l -2.704 -6.53 c 2.401 -1.273 3.702 -3.201 3.07 -4.728 v 0 c -0.709 -1.711 -3.486 -2.072 -6.459 -0.84 c -1.283 0.531 -2.401 1.286 -3.147 2.125 c -0.917 1.03 -1.21 2.109 -0.825 3.037 c 0.384 0.929 1.354 1.484 2.731 1.564 c 0.114 0.007 0.23 0.01 0.348 0.01 c 0.758 0 1.593 -0.139 2.436 -0.397 l 2.706 6.533 c -2.465 1.14 -4.719 2.656 -6.689 4.479 l -9.124 -9.124 c 1.731 -2.095 2.196 -4.374 1.027 -5.543 c -1.31 -1.31 -4.013 -0.582 -6.289 1.695 c -2.276 2.276 -3.004 4.98 -1.695 6.29 c 0.438 0.438 1.033 0.647 1.715 0.647 c 1.138 0 2.52 -0.591 3.83 -1.673 l 9.122 9.122 c -1.823 1.969 -3.339 4.224 -4.479 6.689 l -6.531 -2.705 c 0.299 -0.974 0.435 -1.938 0.385 -2.785 c -0.08 -1.377 -0.635 -2.347 -1.564 -2.731 c -0.928 -0.385 -2.007 -0.092 -3.037 0.825 c -0.838 0.747 -1.593 1.864 -2.125 3.147 c -1.231 2.973 -0.87 5.75 0.841 6.459 c 0.26 0.108 0.532 0.16 0.811 0.16 c 1.358 0 2.869 -1.232 3.925 -3.226 L 20.9 36.1 c -0.918 2.477 -1.459 5.133 -1.566 7.9 H 6.447 c -0.257 -2.707 -1.544 -4.646 -3.198 -4.646 C 1.396 39.354 0 41.782 0 45 c 0 3.219 1.396 5.646 3.249 5.646 c 1.654 0 2.941 -1.938 3.198 -4.646 h 12.888 c 0.107 2.766 0.648 5.423 1.566 7.9 l -6.524 2.703 c -0.478 -0.9 -1.063 -1.678 -1.697 -2.242 c -1.031 -0.918 -2.111 -1.21 -3.038 -0.825 c -0.928 0.385 -1.483 1.354 -1.563 2.73 c -0.065 1.121 0.192 2.445 0.723 3.729 c 1.044 2.521 2.798 4.132 4.351 4.132 c 0.278 0 0.55 -0.052 0.811 -0.159 c 1.528 -0.633 1.97 -2.916 1.173 -5.514 l 6.537 -2.708 c 1.14 2.465 2.656 4.72 4.479 6.689 l -9.124 9.123 c -2.095 -1.731 -4.373 -2.195 -5.543 -1.026 c -0.71 0.71 -0.853 1.819 -0.399 3.122 c 0.369 1.06 1.113 2.185 2.095 3.166 c 1.514 1.514 3.217 2.344 4.574 2.344 c 0.683 0 1.277 -0.21 1.715 -0.648 c 1.169 -1.169 0.704 -3.448 -1.027 -5.543 l 9.124 -9.123 c 1.97 1.823 4.224 3.339 6.689 4.479 l -2.705 6.531 c -0.975 -0.299 -1.939 -0.435 -2.786 -0.385 c -1.376 0.08 -2.346 0.636 -2.731 1.563 c -0.385 0.929 -0.092 2.007 0.825 3.037 c 0.747 0.839 1.864 1.593 3.147 2.125 c 1.186 0.491 2.339 0.729 3.344 0.729 c 1.515 0 2.689 -0.541 3.115 -1.569 c 0.385 -0.928 0.091 -2.007 -0.826 -3.037 c -0.565 -0.634 -1.342 -1.219 -2.242 -1.697 l 2.702 -6.524 c 2.477 0.918 5.133 1.459 7.9 1.566 v 12.888 c -2.707 0.257 -4.646 1.545 -4.646 3.199 C 39.354 88.604 41.782 90 45 90 c 3.219 0 5.646 -1.396 5.646 -3.248 c 0 -1.655 -1.938 -2.942 -4.646 -3.199 V 70.665 c 2.766 -0.107 5.423 -0.648 7.899 -1.566 l 2.703 6.524 c -0.9 0.478 -1.677 1.062 -2.242 1.697 c -0.917 1.03 -1.21 2.109 -0.825 3.036 c 0.384 0.929 1.354 1.484 2.73 1.564 c 0.114 0.007 0.23 0.01 0.35 0.01 c 1.041 0 2.227 -0.255 3.379 -0.732 c 2.973 -1.232 4.681 -3.451 3.973 -5.161 v -0.001 c -0.634 -1.528 -2.918 -1.969 -5.514 -1.172 l -2.708 -6.537 c 2.465 -1.14 4.72 -2.656 6.689 -4.479 l 9.124 9.124 c -1.731 2.096 -2.196 4.374 -1.027 5.543 c 0.438 0.438 1.026 0.659 1.719 0.659 c 0.431 0 0.902 -0.086 1.403 -0.26 c 1.061 -0.369 2.185 -1.112 3.166 -2.095 c 0.982 -0.981 1.726 -2.105 2.095 -3.166 c 0.453 -1.303 0.312 -2.411 -0.399 -3.122 c -1.169 -1.168 -3.448 -0.705 -5.543 1.026 l -9.124 -9.124 c 1.823 -1.97 3.34 -4.225 4.479 -6.689 l 6.537 2.708 c -0.798 2.597 -0.355 4.88 1.173 5.514 c 0.26 0.107 0.531 0.159 0.81 0.159 c 1.552 0 3.307 -1.611 4.352 -4.132 c 0.531 -1.284 0.788 -2.607 0.723 -3.729 c -0.08 -1.376 -0.635 -2.346 -1.563 -2.73 c -0.927 -0.383 -2.006 -0.091 -3.037 0.825 c -0.634 0.565 -1.219 1.342 -1.697 2.242 l -6.524 -2.703 c 0.918 -2.477 1.459 -5.133 1.566 -7.899 h 12.888 c 0.257 2.707 1.545 4.646 3.199 4.646 C 88.604 50.646 90 48.219 90 45 C 90 41.782 88.604 39.354 86.752 39.354 z M 76.802 27.881 c 0.017 -0.007 0.038 -0.011 0.065 -0.011 c 0.152 0 0.468 0.119 0.877 0.482 c 0.608 0.542 1.194 1.423 1.606 2.419 c 0.915 2.209 0.537 3.723 0.241 3.846 c -0.108 0.047 -0.458 -0.042 -0.941 -0.472 c -0.608 -0.542 -1.194 -1.423 -1.606 -2.418 s -0.622 -2.032 -0.574 -2.846 C 76.507 28.237 76.693 27.926 76.802 27.881 z M 55.383 10.408 L 55.383 10.408 c 0.045 -0.109 0.356 -0.295 0.999 -0.333 c 0.076 -0.004 0.153 -0.006 0.233 -0.006 c 0.773 0 1.711 0.207 2.613 0.581 c 2.21 0.916 3.013 2.252 2.891 2.548 c -0.122 0.297 -1.636 0.674 -3.846 -0.242 c -0.996 -0.412 -1.877 -0.998 -2.419 -1.606 C 55.426 10.869 55.338 10.517 55.383 10.408 z M 28.881 13.53 c -0.643 -0.037 -0.955 -0.224 -1 -0.333 s 0.043 -0.46 0.472 -0.942 c 0.542 -0.608 1.423 -1.194 2.419 -1.606 c 1.045 -0.433 1.934 -0.577 2.594 -0.577 c 0.736 0 1.187 0.179 1.252 0.335 c 0.122 0.298 -0.682 1.634 -2.891 2.548 C 30.732 13.368 29.697 13.578 28.881 13.53 z M 10.408 34.618 c -0.296 -0.123 -0.673 -1.636 0.242 -3.846 c 0.412 -0.996 0.998 -1.877 1.606 -2.419 c 0.409 -0.364 0.724 -0.482 0.876 -0.482 c 0.027 0 0.049 0.004 0.066 0.011 h 0 c 0.108 0.045 0.295 0.356 0.332 1 c 0.047 0.813 -0.162 1.851 -0.574 2.846 C 12.041 33.938 10.709 34.742 10.408 34.618 z M 3.249 48.646 C 2.928 48.646 2 47.392 2 45 c 0 -2.392 0.928 -3.646 1.249 -3.646 S 4.497 42.608 4.497 45 C 4.497 47.392 3.569 48.646 3.249 48.646 z M 13.198 62.119 c -0.294 0.123 -1.633 -0.681 -2.549 -2.891 c -0.412 -0.995 -0.621 -2.033 -0.574 -2.847 c 0.038 -0.643 0.224 -0.954 0.332 -0.999 h 0 c 0.017 -0.007 0.039 -0.011 0.066 -0.011 c 0.152 0 0.468 0.118 0.876 0.482 c 0.609 0.542 1.194 1.423 1.606 2.419 C 13.872 60.483 13.494 61.996 13.198 62.119 z M 34.618 79.592 c -0.124 0.296 -1.636 0.674 -3.846 -0.241 c -0.996 -0.412 -1.877 -0.998 -2.419 -1.606 c -0.429 -0.481 -0.517 -0.834 -0.472 -0.942 s 0.356 -0.295 1 -0.332 c 0.076 -0.005 0.153 -0.007 0.233 -0.007 c 0.773 0 1.711 0.207 2.613 0.581 c 0.995 0.412 1.876 0.998 2.418 1.606 C 34.574 79.132 34.663 79.483 34.618 79.592 z M 60.867 76.467 c 0.734 0 1.186 0.179 1.252 0.334 c 0.122 0.297 -0.681 1.634 -2.891 2.55 c -0.996 0.413 -2.032 0.619 -2.847 0.574 c -0.643 -0.038 -0.954 -0.224 -0.999 -0.333 c -0.045 -0.108 0.043 -0.46 0.472 -0.941 c 0.542 -0.608 1.423 -1.194 2.419 -1.606 C 59.318 76.61 60.207 76.467 60.867 76.467 z M 78.65 55.854 c 0.408 -0.364 0.724 -0.482 0.876 -0.482 c 0.026 0 0.049 0.004 0.065 0.011 h 0.001 c 0.108 0.045 0.294 0.356 0.332 0.999 c 0.047 0.813 -0.162 1.852 -0.574 2.847 c -0.915 2.208 -2.248 3.014 -2.549 2.891 c -0.296 -0.123 -0.674 -1.637 0.242 -3.846 C 77.456 57.277 78.042 56.396 78.65 55.854 z M 71.945 12.899 c 0.04 -0.04 0.144 -0.073 0.309 -0.073 c 0.178 0 0.426 0.039 0.742 0.148 c 0.77 0.268 1.647 0.858 2.409 1.62 s 1.353 1.64 1.62 2.41 c 0.211 0.609 0.158 0.967 0.075 1.051 c -0.084 0.083 -0.44 0.136 -1.051 -0.076 c -0.77 -0.268 -1.647 -0.858 -2.409 -1.62 C 71.949 14.668 71.719 13.126 71.945 12.899 z M 41.354 3.249 C 41.354 2.928 42.608 2 45 2 c 2.392 0 3.646 0.928 3.646 1.249 S 47.392 4.497 45 4.497 C 42.608 4.497 41.354 3.569 41.354 3.249 z M 12.899 18.055 c -0.227 -0.227 0.004 -1.769 1.695 -3.461 c 1.349 -1.348 2.602 -1.768 3.17 -1.768 c 0.145 0 0.245 0.027 0.291 0.073 c 0.227 0.227 -0.004 1.769 -1.695 3.46 C 14.668 18.052 13.125 18.28 12.899 18.055 z M 18.055 77.101 c -0.227 0.225 -1.77 -0.004 -3.461 -1.695 c -0.762 -0.762 -1.352 -1.64 -1.62 -2.409 c -0.212 -0.608 -0.159 -0.968 -0.076 -1.051 c 0.226 -0.227 1.77 0.004 3.461 1.694 c 0.762 0.762 1.352 1.641 1.62 2.41 C 18.191 76.658 18.138 77.018 18.055 77.101 z M 48.646 86.752 C 48.646 87.072 47.392 88 45 88 c -2.392 0 -3.646 -0.928 -3.646 -1.248 c 0 -0.321 1.253 -1.249 3.646 -1.249 C 47.392 85.503 48.646 86.431 48.646 86.752 z M 45 68.69 c -13.063 0 -23.691 -10.628 -23.691 -23.69 c 0 -13.063 10.628 -23.691 23.691 -23.691 c 13.063 0 23.69 10.628 23.69 23.691 C 68.69 58.063 58.063 68.69 45 68.69 z M 76.81 71.872 c 0.145 0 0.245 0.027 0.291 0.073 c 0.083 0.083 0.136 0.442 -0.075 1.051 c -0.268 0.77 -0.858 1.647 -1.62 2.409 s -1.64 1.353 -2.409 1.62 c -0.609 0.211 -0.967 0.158 -1.051 0.075 c -0.083 -0.083 -0.136 -0.442 0.075 -1.051 c 0.268 -0.77 0.858 -1.648 1.62 -2.41 C 74.988 72.292 76.241 71.872 76.81 71.872 z M 86.752 48.646 c -0.321 0 -1.249 -1.254 -1.249 -3.646 c 0 -2.392 0.928 -3.646 1.249 -3.646 C 87.072 41.354 88 42.608 88 45 C 88 47.392 87.072 48.646 86.752 48.646 z" style="stroke: none; stroke-width: 1; stroke-dasharray: none; stroke-linecap: butt; stroke-linejoin: miter; stroke-miterlimit: 10; fill: rgb(0,0,0); fill-rule: nonzero; opacity: 1;" transform=" matrix(1 0 0 1 0 0) " stroke-linecap="round" />
	<path d="M 45 50.646 c -2.772 0 -5.028 -2.256 -5.028 -5.028 c 0 -2.772 2.255 -5.028 5.028 -5.028 s 5.028 2.255 5.028 5.028 C 50.028 48.39 47.772 50.646 45 50.646 z M 45 42.59 c -1.669 0 -3.028 1.358 -3.028 3.028 s 1.358 3.028 3.028 3.028 c 1.67 0 3.028 -1.358 3.028 -3.028 S 46.67 42.59 45 42.59 z" style="stroke: none; stroke-width: 1; stroke-dasharray: none; stroke-linecap: butt; stroke-linejoin: miter; stroke-miterlimit: 10; fill: rgb(0,0,0); fill-rule: nonzero; opacity: 1;" transform=" matrix(1 0 0 1 0 0) " stroke-linecap="round" />
	<path d="M 54.699 40.947 c -2.772 0 -5.028 -2.256 -5.028 -5.028 s 2.256 -5.028 5.028 -5.028 s 5.027 2.255 5.027 5.028 S 57.472 40.947 54.699 40.947 z M 54.699 32.891 c -1.67 0 -3.028 1.358 -3.028 3.028 c 0 1.67 1.358 3.028 3.028 3.028 c 1.669 0 3.027 -1.358 3.027 -3.028 C 57.727 34.249 56.368 32.891 54.699 32.891 z" style="stroke: none; stroke-width: 1; stroke-dasharray: none; stroke-linecap: butt; stroke-linejoin: miter; stroke-miterlimit: 10; fill: rgb(0,0,0); fill-rule: nonzero; opacity: 1;" transform=" matrix(1 0 0 1 0 0) " stroke-linecap="round" />
	<path d="M 35.301 40.947 c -2.772 0 -5.028 -2.256 -5.028 -5.028 s 2.255 -5.028 5.028 -5.028 s 5.028 2.255 5.028 5.028 S 38.073 40.947 35.301 40.947 z M 35.301 32.891 c -1.669 0 -3.028 1.358 -3.028 3.028 c 0 1.67 1.358 3.028 3.028 3.028 c 1.67 0 3.028 -1.358 3.028 -3.028 C 38.329 34.249 36.971 32.891 35.301 32.891 z" style="stroke: none; stroke-width: 1; stroke-dasharray: none; stroke-linecap: butt; stroke-linejoin: miter; stroke-miterlimit: 10; fill: rgb(0,0,0); fill-rule: nonzero; opacity: 1;" transform=" matrix(1 0 0 1 0 0) " stroke-linecap="round" />
	<path d="M 35.301 60.345 c -2.772 0 -5.028 -2.256 -5.028 -5.028 s 2.255 -5.027 5.028 -5.027 s 5.028 2.255 5.028 5.027 S 38.073 60.345 35.301 60.345 z M 35.301 52.289 c -1.669 0 -3.028 1.358 -3.028 3.027 c 0 1.67 1.358 3.028 3.028 3.028 c 1.67 0 3.028 -1.358 3.028 -3.028 C 38.329 53.647 36.971 52.289 35.301 52.289 z" style="stroke: none; stroke-width: 1; stroke-dasharray: none; stroke-linecap: butt; stroke-linejoin: miter; stroke-miterlimit: 10; fill: rgb(0,0,0); fill-rule: nonzero; opacity: 1;" transform=" matrix(1 0 0 1 0 0) " stroke-linecap="round" />
	<path d="M 54.699 60.345 c -2.772 0 -5.028 -2.256 -5.028 -5.028 s 2.256 -5.027 5.028 -5.027 s 5.027 2.255 5.027 5.027 S 57.472 60.345 54.699 60.345 z M 54.699 52.289 c -1.67 0 -3.028 1.358 -3.028 3.027 c 0 1.67 1.358 3.028 3.028 3.028 c 1.669 0 3.027 -1.358 3.027 -3.028 C 57.727 53.647 56.368 52.289 54.699 52.289 z" style="stroke: none; stroke-width: 1; stroke-dasharray: none; stroke-linecap: butt; stroke-linejoin: miter; stroke-miterlimit: 10; fill: rgb(0,0,0); fill-rule: nonzero; opacity: 1;" transform=" matrix(1 0 0 1 0 0) " stroke-linecap="round" />
</g>
</svg>